<svg id="Logo_White" xmlns="http://www.w3.org/2000/svg" width="305.922" height="76.765" viewBox="0 0 305.922 76.765"><g id="Group_6393" data-name="Group 6393" transform="translate(62.138 24.64)" class="logoName"><path id="Path_5713" data-name="Path 5713" d="M203.707,697.826a5.906,5.906,0,0,0-1.26-.63l-3.338.063v.693h5.921v.882h-5.921v.693h6.74v1.008H190.668v-1.008h6.8v-.693h-5.858v-.882h5.858v-.693l-4.913.125-.189-.882h1.638q.314-.189,1.008-.63c.209-.126.378-.23.5-.315h-2.96v-.882h11.464v.882h-2.646l3.276,1.386ZM190.92,688v-1.008h6.551v-1.071h1.638v1.071h6.551V688h-6.551v.693h5.732v.819h-13.1v-.819h5.732V688Zm.063,7.181v-2.141h14.551v2.141h-1.512v-1.2H192.5v1.2Zm1.2-2.772v-2.267h12.157v2.267Zm1.638-1.449v.693h8.945v-.693Zm6.992,5.417-1.449-.63.189-.189h-1.764c-.169.085-.441.231-.819.44a5.294,5.294,0,0,1-.819.441Z" transform="translate(-190.163 -685.921)" fill="#fff"></path> <path id="Path_5714" data-name="Path 5714" d="M242.1,691.845v-1.637h4.031v-4.031h1.764v14.8h-1.764V698.27a37.146,37.146,0,0,1-3.842,1.26l-.377-1.7q1.89-.5,4.22-1.26v-4.725Zm10.835,8.756q-2.52.061-2.457-2.394V686.176H252.3v4.913q1.89-1.07,3.716-2.267l1.008,1.512q-2.646,1.576-4.725,2.646v4.976q-.064,1.2,1.071,1.134h.5q1.2.129,1.323-1.323a17.34,17.34,0,0,0,.252-2.331q1.005.317,1.7.567c-.042.338-.125.925-.251,1.764-.043.378-.086.672-.126.882q-.318,2.079-2.772,1.952Z" transform="translate(-203.41 -685.987)" fill="#fff"></path> <path id="Path_5715" data-name="Path 5715" d="M293.49,691.76v-1.7h6.362q.061-1.384.063-3.968h1.89l-.126,3.968h6.363v1.7h-6.3q.816,5.419,6.616,7.5a8.032,8.032,0,0,0-1.2,1.575q-5.23-2.268-6.363-6.677-1.01,4.285-6.363,6.866-.189-.254-.693-.945a7.736,7.736,0,0,1-.5-.63q6.047-2.517,6.425-7.685Z" transform="translate(-216.679 -685.965)" fill="#fff"></path> <path id="Path_5716" data-name="Path 5716" d="M353.358,693.858a8.692,8.692,0,0,0-.693-1.512,17.69,17.69,0,0,0,2.394-6.425l1.512.189a26.784,26.784,0,0,1-.819,2.709h3.842v1.449h-.756a17.545,17.545,0,0,1-1.7,6.74,8.316,8.316,0,0,0,2.583,2.394q-.189.314-.567,1.008a1.77,1.77,0,0,0-.314.5,19.3,19.3,0,0,1-2.646-2.52,23.741,23.741,0,0,1-2.9,2.772,10.509,10.509,0,0,0-.882-1.134l-.44.756q-1.452-.631-2.583-1.071a14.407,14.407,0,0,1-4.661,1.512,5.286,5.286,0,0,0-.5-1.2,18.555,18.555,0,0,0,3.528-.819l-1.2-.315a2.4,2.4,0,0,1-.377.315l-1.2-.441a.743.743,0,0,0,.126-.188,11.928,11.928,0,0,0,1.071-1.26h-1.7v-1.071H347a8.572,8.572,0,0,0,.63-.819h-2.52v-2.772h3.023v-.819h-3.023v-1.763h-.756v-1.2h.756v-1.764h3.023v-1.071h1.449v1.071H352.6v1.764h.819v1.2H352.6v1.763h-3.024v.819H352.6v2.772h-3.4a.187.187,0,0,1-.063.126c-.086.126-.252.357-.5.693H353.3v1.071h-1.261a6.936,6.936,0,0,1-1.448,1.7,8.8,8.8,0,0,1,2.015.567,11.02,11.02,0,0,0,2.772-2.583,13.037,13.037,0,0,1-1.323-4.284,5.427,5.427,0,0,0-.315.566Q353.483,693.669,353.358,693.858Zm-6.929-5.732v.882h1.7v-.882Zm0,1.827v.945h1.7v-.945Zm0,3.59v.945h1.7v-.945Zm.882,4.41a8.184,8.184,0,0,1,.882.252,6.381,6.381,0,0,1,.882.315,6.932,6.932,0,0,0,1.26-1.2h-2.52Zm3.968-9.827h-1.7v.882h1.7Zm-1.7,1.827v.945h1.7v-.945Zm1.764,3.59h-1.764v.945h1.764Zm4.913,1.953a17.2,17.2,0,0,0,1.134-5.228h-2.142l-.126.314A14.563,14.563,0,0,0,356.255,695.5Z" transform="translate(-229.86 -685.921)" fill="#fff"></path> <path id="Path_5717" data-name="Path 5717" d="M395.951,700.85c-.042-.169-.105-.441-.188-.819a7.578,7.578,0,0,0-.126-.756h.882c.5.041.733-.166.693-.63v-3.4l-1.386.441-.188-1.7,1.574-.441v-3.024h-1.386v-1.574h1.386v-2.961h1.512v2.961h1.134v1.574h-1.134v2.52l1.134-.315c0,.589.02,1.134.063,1.638-.421.126-.819.251-1.2.377v4.347a1.45,1.45,0,0,1-1.574,1.7Zm6.363-9.449-.126-.945,1.7-.125v-.882H401.81v2.9a31.425,31.425,0,0,1-.315,5.228,11.109,11.109,0,0,1-1.386,3.465l-1.2-1.134a8.74,8.74,0,0,0,1.2-2.835,28.039,28.039,0,0,0,.252-4.473V688.5h3.591v-2.583h1.574v.819h4.536v.945h-4.536v.819h5.04l-.315,1.952-1.386-.188.126-.819h-3.653v.819l2.646-.126.063.756-2.709.126q-.129.756.945.693h1.071q.816,0,.945-.441a2.207,2.207,0,0,0,.126-.693l1.386.378a4.685,4.685,0,0,1-.189.819q-.377.884-1.889.882h-2.079q-1.764,0-1.763-1.386Zm.189,2.772v-1.008h7.874v1.008h-3.213a12.277,12.277,0,0,1-1.323.755,3.172,3.172,0,0,1,.756.945q1.384-.628,2.9-1.386l.882.945-1.512.755a4.514,4.514,0,0,0,2.079,2.835,10.22,10.22,0,0,0-.882,1.134,5.213,5.213,0,0,1-2.267-3.464.616.616,0,0,0-.315.126,2.031,2.031,0,0,0-.378.126,4.722,4.722,0,0,1,.315,1.7,1.888,1.888,0,0,1-2.141,2.268h-1.386a5.428,5.428,0,0,0-.315-1.134,6.492,6.492,0,0,1,.756.063h.567q1.133.06,1.071-1.2v-.44a17.129,17.129,0,0,1-4.094,2.078,6.577,6.577,0,0,0-.63-1.008,13.627,13.627,0,0,0,4.535-1.953,1.82,1.82,0,0,1-.126-.377.625.625,0,0,1-.126-.252,17.343,17.343,0,0,1-3.212,1.512,4.31,4.31,0,0,0-.5-.945,12.156,12.156,0,0,0,3.276-1.26,2.647,2.647,0,0,0-.378-.5.647.647,0,0,0-.252.126q-.7.253-1.952.693a6.63,6.63,0,0,0-.5-.945,17.862,17.862,0,0,0,3.527-1.2Z" transform="translate(-243.151 -685.921)" fill="#fff"></path> <path id="Path_5718" data-name="Path 5718" d="M447.984,696.756v-7.811h5.858v-3.024h1.827v3.024h5.858v7.748h-1.764v-.819h-4.094V701.1h-1.827v-5.228h-4.094v.882Zm1.763-6.174v3.654h4.094v-3.654Zm10.016,0h-4.094v3.654h4.094Z" transform="translate(-256.683 -685.921)" fill="#fff"></path> <path id="Path_5719" data-name="Path 5719" d="M499.59,697.322a5.911,5.911,0,0,0-1.134-.44,4.17,4.17,0,0,1-.5-.189,59.91,59.91,0,0,0,1.7-5.985l1.7.5Q500.533,694.364,499.59,697.322Zm5.039,3.15q-2.646.061-2.583-2.456v-8.693h1.827v8.315q-.064,1.387,1.323,1.323h1.952a1.38,1.38,0,0,0,1.575-1.26,6.428,6.428,0,0,1,.063-.693q.125-.881.189-1.386a4.774,4.774,0,0,1,.882.314,6.482,6.482,0,0,1,.882.315c-.126.925-.275,1.764-.441,2.52q-.317,1.762-2.835,1.7Zm2.456-9.7q-1.133-1.322-3.527-3.653l1.2-1.2a49.6,49.6,0,0,1,3.59,3.464Zm4.662,5.543q-1.135-2.328-2.646-5.165l1.512-.819q1.133,2.018,2.772,5.1Z" transform="translate(-269.601 -685.921)" fill="#fff"></path> <path id="Path_5720" data-name="Path 5720" d="M199.1,722.494v.936h-4.014v10.578h-1.1V723.43h-4v-.936Z" transform="translate(-189.987 -695.376)" fill="#fff"></path> <path id="Path_5721" data-name="Path 5721" d="M202.2,728.006a2.366,2.366,0,0,1,.7-.87,2.951,2.951,0,0,1,1.04-.5,5.125,5.125,0,0,1,1.322-.16,5.846,5.846,0,0,1,1.1.1,2.683,2.683,0,0,1,.984.4,2.15,2.15,0,0,1,.709.814,2.93,2.93,0,0,1,.274,1.364v4.419a.535.535,0,0,0,.6.612.751.751,0,0,0,.322-.065v.855c-.119.022-.223.039-.314.05a3.021,3.021,0,0,1-.347.016,1.5,1.5,0,0,1-.621-.106.828.828,0,0,1-.363-.3,1.11,1.11,0,0,1-.169-.459,3.981,3.981,0,0,1-.04-.589h-.033a6.875,6.875,0,0,1-.557.718,2.771,2.771,0,0,1-.629.524,2.863,2.863,0,0,1-.79.322,4.279,4.279,0,0,1-1.057.112,4.108,4.108,0,0,1-1.089-.137,2.425,2.425,0,0,1-.887-.434,2.078,2.078,0,0,1-.6-.759,2.511,2.511,0,0,1-.217-1.088,2.151,2.151,0,0,1,.387-1.364,2.445,2.445,0,0,1,1.023-.749,5.887,5.887,0,0,1,1.436-.363q.8-.1,1.621-.2a5.23,5.23,0,0,0,.565-.081.97.97,0,0,0,.4-.169.79.79,0,0,0,.25-.331,1.415,1.415,0,0,0,.088-.546,1.865,1.865,0,0,0-.168-.848,1.357,1.357,0,0,0-.468-.524,1.889,1.889,0,0,0-.694-.265,4.635,4.635,0,0,0-.846-.072,2.566,2.566,0,0,0-1.58.459,1.8,1.8,0,0,0-.646,1.476H201.89A3.382,3.382,0,0,1,202.2,728.006Zm5.078,2.484a.583.583,0,0,1-.37.257,3.631,3.631,0,0,1-.483.113q-.646.115-1.331.2a7.352,7.352,0,0,0-1.249.265,2.472,2.472,0,0,0-.928.508,1.214,1.214,0,0,0-.362.943,1.474,1.474,0,0,0,.153.686,1.635,1.635,0,0,0,.411.515,1.75,1.75,0,0,0,.6.331,2.145,2.145,0,0,0,.694.115,3.532,3.532,0,0,0,1.112-.178,2.728,2.728,0,0,0,.927-.518,2.448,2.448,0,0,0,.862-1.919V730.49Z" transform="translate(-192.973 -696.405)" fill="#fff"></path> <path id="Path_5722" data-name="Path 5722" d="M215.557,722.494v1.628H214.54v-1.628Zm0,3.192v8.322H214.54v-8.322Z" transform="translate(-196.334 -695.376)" fill="#fff"></path> <path id="Path_5723" data-name="Path 5723" d="M220.564,726.715V728.3h.032a2.72,2.72,0,0,1,1.153-1.348,3.479,3.479,0,0,1,1.814-.475,3.624,3.624,0,0,1,1.654.354,3.423,3.423,0,0,1,1.169.96,4.093,4.093,0,0,1,.693,1.4,6.39,6.39,0,0,1,0,3.37,4.1,4.1,0,0,1-.693,1.4,3.276,3.276,0,0,1-1.169.951,3.963,3.963,0,0,1-2.557.234,3.161,3.161,0,0,1-.839-.337,2.786,2.786,0,0,1-.684-.565,2.408,2.408,0,0,1-.46-.79h-.033V738.1h-1.016V726.715Zm5.572,2.88a3.588,3.588,0,0,0-.483-1.139,2.682,2.682,0,0,0-.847-.814,2.35,2.35,0,0,0-1.242-.313,3.046,3.046,0,0,0-1.4.291,2.429,2.429,0,0,0-.9.773,3.026,3.026,0,0,0-.476,1.129,6.506,6.506,0,0,0-.137,1.355,5.462,5.462,0,0,0,.154,1.282,3.312,3.312,0,0,0,.5,1.137,2.68,2.68,0,0,0,.9.814,2.732,2.732,0,0,0,1.362.315,2.35,2.35,0,0,0,1.242-.315,2.66,2.66,0,0,0,.847-.814,3.577,3.577,0,0,0,.483-1.137,5.432,5.432,0,0,0,0-2.564Z" transform="translate(-197.65 -696.405)" fill="#fff"></path> <path id="Path_5724" data-name="Path 5724" d="M233.8,732.287a3.119,3.119,0,0,0,.491,1.055,2.784,2.784,0,0,0,.855.774,2.391,2.391,0,0,0,1.242.308,2.471,2.471,0,0,0,1.742-.581,3.058,3.058,0,0,0,.87-1.55h1.016a4.055,4.055,0,0,1-1.185,2.194,3.532,3.532,0,0,1-2.443.773,3.862,3.862,0,0,1-1.7-.346,3.09,3.09,0,0,1-1.169-.951,4.124,4.124,0,0,1-.67-1.4,6.369,6.369,0,0,1-.218-1.685,6.038,6.038,0,0,1,.218-1.613,4.325,4.325,0,0,1,.67-1.41,3.376,3.376,0,0,1,1.169-1,3.6,3.6,0,0,1,1.7-.378,3.291,3.291,0,0,1,2.862,1.458,4.407,4.407,0,0,1,.638,1.5,6.616,6.616,0,0,1,.161,1.719h-6.4A4.473,4.473,0,0,0,233.8,732.287Zm5.031-3.1a3.05,3.05,0,0,0-.524-.942,2.6,2.6,0,0,0-.822-.661,2.351,2.351,0,0,0-1.1-.25,2.382,2.382,0,0,0-1.112.25,2.6,2.6,0,0,0-.824.661,3.34,3.34,0,0,0-.54.951,4.69,4.69,0,0,0-.265,1.1h5.386A3.711,3.711,0,0,0,238.835,729.183Z" transform="translate(-201.012 -696.405)" fill="#fff"></path> <path id="Path_5725" data-name="Path 5725" d="M246.612,722.494v1.628h-1.017v-1.628Zm0,3.192v8.322h-1.017v-8.322Z" transform="translate(-204.363 -695.376)" fill="#fff"></path> <path id="Path_5726" data-name="Path 5726" d="M259.025,722.494v7.126a5.536,5.536,0,0,0,.225,1.7,2.863,2.863,0,0,0,.661,1.143,2.547,2.547,0,0,0,1.065.645,4.606,4.606,0,0,0,1.417.2,4.682,4.682,0,0,0,1.435-.2,2.545,2.545,0,0,0,1.064-.645,2.83,2.83,0,0,0,.661-1.143,5.6,5.6,0,0,0,.227-1.7v-7.126h1.1v7.37a5.606,5.606,0,0,1-.25,1.685,3.6,3.6,0,0,1-2.178,2.337,6.224,6.224,0,0,1-4.094,0,3.6,3.6,0,0,1-2.178-2.337,5.628,5.628,0,0,1-.25-1.685v-7.37Z" transform="translate(-207.551 -695.376)" fill="#fff"></path> <path id="Path_5727" data-name="Path 5727" d="M274.738,726.758v1.952h.031a3.208,3.208,0,0,1,1.2-1.565,3.156,3.156,0,0,1,1.943-.5v1.017a3.059,3.059,0,0,0-1.258.184,2.861,2.861,0,0,0-.977.621,2.812,2.812,0,0,0-.636.96,3.187,3.187,0,0,0-.225,1.217v4.434H273.8v-8.322Z" transform="translate(-211.655 -696.448)" fill="#fff"></path> <path id="Path_5728" data-name="Path 5728" d="M282.759,722.494v4.774h.032a2.4,2.4,0,0,1,.459-.79,2.893,2.893,0,0,1,.686-.574,3.032,3.032,0,0,1,.839-.346,3.737,3.737,0,0,1,.9-.113,3.628,3.628,0,0,1,1.654.354,3.39,3.39,0,0,1,1.167.96,4.07,4.07,0,0,1,.7,1.4,6.432,6.432,0,0,1,0,3.37,4.077,4.077,0,0,1-.7,1.4,3.246,3.246,0,0,1-1.167.951,3.685,3.685,0,0,1-1.654.346,3.5,3.5,0,0,1-1.813-.468,2.66,2.66,0,0,1-1.154-1.336h-.032v1.579h-.936V722.494Zm5.489,6.072a3.54,3.54,0,0,0-.483-1.139,2.674,2.674,0,0,0-.846-.814,2.346,2.346,0,0,0-1.242-.313,2.6,2.6,0,0,0-2.265,1.127,3.335,3.335,0,0,0-.5,1.139,5.433,5.433,0,0,0,0,2.564,3.324,3.324,0,0,0,.5,1.137,2.608,2.608,0,0,0,2.265,1.129,2.346,2.346,0,0,0,1.242-.315,2.65,2.65,0,0,0,.846-.814,3.528,3.528,0,0,0,.483-1.137,5.432,5.432,0,0,0,0-2.564Z" transform="translate(-213.707 -695.376)" fill="#fff"></path> <path id="Path_5729" data-name="Path 5729" d="M295.361,728.006a2.407,2.407,0,0,1,.7-.87,2.959,2.959,0,0,1,1.04-.5,5.134,5.134,0,0,1,1.323-.16,5.868,5.868,0,0,1,1.1.1,2.687,2.687,0,0,1,.982.4,2.15,2.15,0,0,1,.709.814,2.939,2.939,0,0,1,.274,1.364v4.419a.534.534,0,0,0,.6.612.754.754,0,0,0,.324-.065v.855c-.119.022-.225.039-.315.05a3,3,0,0,1-.346.016,1.5,1.5,0,0,1-.621-.106.822.822,0,0,1-.363-.3,1.111,1.111,0,0,1-.171-.459,3.883,3.883,0,0,1-.041-.589h-.031a6.977,6.977,0,0,1-.556.718,2.792,2.792,0,0,1-.63.524,2.9,2.9,0,0,1-.79.322,4.289,4.289,0,0,1-1.057.112,4.093,4.093,0,0,1-1.087-.137,2.443,2.443,0,0,1-.888-.434,2.092,2.092,0,0,1-.6-.759,2.533,2.533,0,0,1-.219-1.088,2.164,2.164,0,0,1,.387-1.364,2.46,2.46,0,0,1,1.026-.749,5.835,5.835,0,0,1,1.436-.363q.8-.1,1.619-.2a5.285,5.285,0,0,0,.565-.081.979.979,0,0,0,.4-.169.784.784,0,0,0,.25-.331,1.441,1.441,0,0,0,.09-.546,1.864,1.864,0,0,0-.171-.848,1.334,1.334,0,0,0-.468-.524,1.873,1.873,0,0,0-.693-.265,4.629,4.629,0,0,0-.846-.072,2.573,2.573,0,0,0-1.582.459,1.8,1.8,0,0,0-.644,1.476h-1.017A3.383,3.383,0,0,1,295.361,728.006Zm5.08,2.484a.577.577,0,0,1-.371.257,3.586,3.586,0,0,1-.484.113q-.644.115-1.329.2a7.419,7.419,0,0,0-1.251.265,2.477,2.477,0,0,0-.927.508,1.219,1.219,0,0,0-.362.943,1.493,1.493,0,0,0,.153.686,1.614,1.614,0,0,0,.412.515,1.76,1.76,0,0,0,.6.331,2.147,2.147,0,0,0,.693.115,3.537,3.537,0,0,0,1.114-.178,2.721,2.721,0,0,0,.927-.518,2.449,2.449,0,0,0,.864-1.919V730.49Z" transform="translate(-217.057 -696.405)" fill="#fff"></path> <path id="Path_5730" data-name="Path 5730" d="M308.678,726.715v1.435h.033a2.442,2.442,0,0,1,1.033-1.218,3.037,3.037,0,0,1,1.629-.459,4.072,4.072,0,0,1,1.458.225,2.312,2.312,0,0,1,.945.636,2.39,2.39,0,0,1,.5,1.008,5.694,5.694,0,0,1,.144,1.338v5.354h-1.014v-5.193a4.915,4.915,0,0,0-.1-.992,2.127,2.127,0,0,0-.34-.8,1.633,1.633,0,0,0-.652-.531,2.38,2.38,0,0,0-1.023-.193,2.608,2.608,0,0,0-1.089.216,2.363,2.363,0,0,0-.807.6,2.735,2.735,0,0,0-.515.9,3.682,3.682,0,0,0-.2,1.136v4.855h-1.014v-8.322Z" transform="translate(-220.408 -696.405)" fill="#fff"></path> <path id="Path_5731" data-name="Path 5731" d="M329.051,722.494v11.514h-1.1V722.494Z" transform="translate(-225.654 -695.376)" fill="#fff"></path> <path id="Path_5732" data-name="Path 5732" d="M334.5,726.715v1.435h.033a2.442,2.442,0,0,1,1.033-1.218,3.035,3.035,0,0,1,1.629-.459,4.075,4.075,0,0,1,1.458.225,2.317,2.317,0,0,1,.945.636,2.391,2.391,0,0,1,.5,1.008,5.692,5.692,0,0,1,.144,1.338v5.354h-1.015v-5.193a4.915,4.915,0,0,0-.1-.992,2.127,2.127,0,0,0-.34-.8,1.633,1.633,0,0,0-.653-.531,2.381,2.381,0,0,0-1.024-.193,2.607,2.607,0,0,0-1.089.216,2.363,2.363,0,0,0-.807.6,2.736,2.736,0,0,0-.515.9,3.681,3.681,0,0,0-.2,1.136v4.855h-1.014v-8.322Z" transform="translate(-227.083 -696.405)" fill="#fff"></path> <path id="Path_5733" data-name="Path 5733" d="M349.275,725.928v.855h-1.694V732.4a1.794,1.794,0,0,0,.137.781c.09.189.319.294.684.314a8.229,8.229,0,0,0,.873-.047v.855c-.151,0-.3,0-.452.016s-.3.016-.452.016a2.013,2.013,0,0,1-1.42-.4,1.989,1.989,0,0,1-.387-1.458v-5.694h-1.451v-.855h1.451v-2.5h1.017v2.5Z" transform="translate(-230.09 -695.617)" fill="#fff"></path> <path id="Path_5734" data-name="Path 5734" d="M354.394,732.287a3.166,3.166,0,0,0,.492,1.055,2.775,2.775,0,0,0,.855.774,2.391,2.391,0,0,0,1.242.308,2.469,2.469,0,0,0,1.742-.581,3.074,3.074,0,0,0,.87-1.55h1.017a4.065,4.065,0,0,1-1.186,2.194,3.534,3.534,0,0,1-2.443.773,3.853,3.853,0,0,1-1.7-.346,3.092,3.092,0,0,1-1.169-.951,4.14,4.14,0,0,1-.67-1.4,6.4,6.4,0,0,1-.216-1.685,6.067,6.067,0,0,1,.216-1.613,4.342,4.342,0,0,1,.67-1.41,3.379,3.379,0,0,1,1.169-1,3.6,3.6,0,0,1,1.7-.378,3.289,3.289,0,0,1,2.862,1.458,4.36,4.36,0,0,1,.636,1.5,6.488,6.488,0,0,1,.162,1.719h-6.4A4.539,4.539,0,0,0,354.394,732.287Zm5.032-3.1a3.051,3.051,0,0,0-.524-.942,2.586,2.586,0,0,0-.823-.661,2.35,2.35,0,0,0-1.1-.25,2.392,2.392,0,0,0-1.114.25,2.578,2.578,0,0,0-.821.661,3.22,3.22,0,0,0-.54.951,4.586,4.586,0,0,0-.268,1.1h5.385A3.618,3.618,0,0,0,359.426,729.183Z" transform="translate(-232.187 -696.405)" fill="#fff"></path> <path id="Path_5735" data-name="Path 5735" d="M367.2,722.494v11.514h-1.017V722.494Z" transform="translate(-235.538 -695.376)" fill="#fff"></path> <path id="Path_5736" data-name="Path 5736" d="M372.314,722.494v11.514H371.3V722.494Z" transform="translate(-236.859 -695.376)" fill="#fff"></path> <path id="Path_5737" data-name="Path 5737" d="M377.427,722.494v1.628H376.41v-1.628Zm0,3.192v8.322H376.41v-8.322Z" transform="translate(-238.18 -695.376)" fill="#fff"></path> <path id="Path_5738" data-name="Path 5738" d="M388.182,736.02a3.245,3.245,0,0,1-.636,1.258,2.805,2.805,0,0,1-1.139.792,4.74,4.74,0,0,1-1.717.272,5.179,5.179,0,0,1-1.226-.144,3.478,3.478,0,0,1-1.073-.452,2.687,2.687,0,0,1-.79-.781,2.331,2.331,0,0,1-.363-1.138h1.014a1.815,1.815,0,0,0,.315.783,1.9,1.9,0,0,0,.565.508,2.521,2.521,0,0,0,.733.282,3.87,3.87,0,0,0,.823.09,2.437,2.437,0,0,0,2.047-.807,3.7,3.7,0,0,0,.63-2.322V733.23h-.034a2.946,2.946,0,0,1-1.039,1.241,2.769,2.769,0,0,1-1.6.468,4.015,4.015,0,0,1-1.709-.331,3.185,3.185,0,0,1-1.17-.911,3.711,3.711,0,0,1-.668-1.364,6.429,6.429,0,0,1-.21-1.669,5.206,5.206,0,0,1,.25-1.62,4.026,4.026,0,0,1,.724-1.338,3.411,3.411,0,0,1,1.179-.9,3.72,3.72,0,0,1,1.6-.331,2.96,2.96,0,0,1,.88.128,2.8,2.8,0,0,1,.749.363,3.3,3.3,0,0,1,.605.542,2.46,2.46,0,0,1,.409.644h.034v-1.435h1.014v7.645A6.413,6.413,0,0,1,388.182,736.02Zm-2.33-2.216a2.686,2.686,0,0,0,.839-.742A3.263,3.263,0,0,0,387.2,732a4.375,4.375,0,0,0,.171-1.224,5.323,5.323,0,0,0-.146-1.226,3.526,3.526,0,0,0-.468-1.114,2.522,2.522,0,0,0-.83-.805,2.337,2.337,0,0,0-1.233-.306,2.449,2.449,0,0,0-1.241.3,2.655,2.655,0,0,0-.855.783,3.3,3.3,0,0,0-.493,1.1,5.342,5.342,0,0,0-.153,1.266A4.659,4.659,0,0,0,382.11,732a3.166,3.166,0,0,0,.5,1.057,2.616,2.616,0,0,0,.855.742,2.534,2.534,0,0,0,1.226.282A2.333,2.333,0,0,0,385.851,733.8Z" transform="translate(-239.35 -696.405)" fill="#fff"></path> <path id="Path_5739" data-name="Path 5739" d="M395.278,732.287a3.152,3.152,0,0,0,.493,1.055,2.759,2.759,0,0,0,.855.774,2.386,2.386,0,0,0,1.241.308,2.467,2.467,0,0,0,1.742-.581,3.069,3.069,0,0,0,.871-1.55H401.5a4.065,4.065,0,0,1-1.186,2.194,3.533,3.533,0,0,1-2.443.773,3.847,3.847,0,0,1-1.7-.346,3.089,3.089,0,0,1-1.17-.951,4.138,4.138,0,0,1-.67-1.4,6.43,6.43,0,0,1-.217-1.685,6.1,6.1,0,0,1,.217-1.613,4.341,4.341,0,0,1,.67-1.41,3.375,3.375,0,0,1,1.17-1,3.59,3.59,0,0,1,1.7-.378,3.289,3.289,0,0,1,2.862,1.458,4.361,4.361,0,0,1,.636,1.5,6.49,6.49,0,0,1,.162,1.719h-6.4A4.573,4.573,0,0,0,395.278,732.287Zm5.032-3.1a3.036,3.036,0,0,0-.524-.942,2.587,2.587,0,0,0-.823-.661,2.348,2.348,0,0,0-1.1-.25,2.387,2.387,0,0,0-1.113.25,2.589,2.589,0,0,0-.822.661,3.239,3.239,0,0,0-.54.951,4.621,4.621,0,0,0-.268,1.1h5.385A3.62,3.62,0,0,0,400.31,729.183Z" transform="translate(-242.756 -696.405)" fill="#fff"></path> <path id="Path_5740" data-name="Path 5740" d="M408.044,726.715v1.435h.033a2.442,2.442,0,0,1,1.033-1.218,3.036,3.036,0,0,1,1.629-.459,4.072,4.072,0,0,1,1.458.225,2.312,2.312,0,0,1,.945.636,2.391,2.391,0,0,1,.5,1.008,5.692,5.692,0,0,1,.144,1.338v5.354h-1.014v-5.193a4.915,4.915,0,0,0-.1-.992,2.128,2.128,0,0,0-.34-.8,1.628,1.628,0,0,0-.653-.531,2.38,2.38,0,0,0-1.023-.193,2.608,2.608,0,0,0-1.089.216,2.363,2.363,0,0,0-.807.6,2.736,2.736,0,0,0-.515.9,3.68,3.68,0,0,0-.2,1.136v4.855H407.03v-8.322Z" transform="translate(-246.096 -696.405)" fill="#fff"></path> <path id="Path_5741" data-name="Path 5741" d="M424.765,727.86a2.216,2.216,0,0,0-1.579-.531,2.574,2.574,0,0,0-1.275.306,2.833,2.833,0,0,0-.911.805,3.7,3.7,0,0,0-.546,1.138,4.6,4.6,0,0,0,0,2.6,3.685,3.685,0,0,0,.546,1.136,2.806,2.806,0,0,0,.911.805,2.576,2.576,0,0,0,1.275.308,2.273,2.273,0,0,0,.887-.178,2.432,2.432,0,0,0,.742-.492,2.641,2.641,0,0,0,.531-.75,2.752,2.752,0,0,0,.259-.951h1.014a3.846,3.846,0,0,1-1.111,2.362,3.262,3.262,0,0,1-2.322.845,3.88,3.88,0,0,1-1.685-.346,3.543,3.543,0,0,1-1.235-.942,4.151,4.151,0,0,1-.758-1.395,5.775,5.775,0,0,1,0-3.4,4.151,4.151,0,0,1,.758-1.395,3.706,3.706,0,0,1,1.235-.951,3.82,3.82,0,0,1,1.685-.354,3.627,3.627,0,0,1,2.266.709,3.034,3.034,0,0,1,1.1,2.146h-1.017A2.8,2.8,0,0,0,424.765,727.86Z" transform="translate(-249.255 -696.405)" fill="#fff"></path> <path id="Path_5742" data-name="Path 5742" d="M432.795,732.287a3.15,3.15,0,0,0,.492,1.055,2.767,2.767,0,0,0,.855.774,2.387,2.387,0,0,0,1.242.308,2.466,2.466,0,0,0,1.741-.581,3.069,3.069,0,0,0,.871-1.55h1.017a4.075,4.075,0,0,1-1.186,2.194,3.534,3.534,0,0,1-2.443.773,3.85,3.85,0,0,1-1.7-.346,3.1,3.1,0,0,1-1.17-.951,4.153,4.153,0,0,1-.67-1.4,6.43,6.43,0,0,1-.216-1.685,6.1,6.1,0,0,1,.216-1.613,4.356,4.356,0,0,1,.67-1.41,3.388,3.388,0,0,1,1.17-1,3.593,3.593,0,0,1,1.7-.378,3.429,3.429,0,0,1,1.71.4,3.394,3.394,0,0,1,1.152,1.055,4.348,4.348,0,0,1,.637,1.5,6.46,6.46,0,0,1,.162,1.719h-6.4A4.54,4.54,0,0,0,432.795,732.287Zm5.032-3.1a3.066,3.066,0,0,0-.524-.942,2.6,2.6,0,0,0-.824-.661,2.345,2.345,0,0,0-1.1-.25,2.39,2.39,0,0,0-1.114.25,2.589,2.589,0,0,0-.822.661,3.239,3.239,0,0,0-.54.951,4.624,4.624,0,0,0-.268,1.1h5.386A3.619,3.619,0,0,0,437.827,729.183Z" transform="translate(-252.455 -696.405)" fill="#fff"></path> <path id="Path_5743" data-name="Path 5743" d="M459.709,724.706a3.25,3.25,0,0,0-.806-.877,3.578,3.578,0,0,0-1.048-.54,3.872,3.872,0,0,0-1.2-.187,4.144,4.144,0,0,0-1.966.437,3.9,3.9,0,0,0-1.347,1.151,5,5,0,0,0-.774,1.622,7,7,0,0,0,0,3.7,4.985,4.985,0,0,0,.774,1.628,3.9,3.9,0,0,0,1.347,1.152,4.153,4.153,0,0,0,1.966.436,3.5,3.5,0,0,0,1.451-.29,3.458,3.458,0,0,0,1.114-.79,4.12,4.12,0,0,0,.759-1.17,4.8,4.8,0,0,0,.369-1.444h1.1a6.278,6.278,0,0,1-.5,1.92,4.679,4.679,0,0,1-1,1.451,4.232,4.232,0,0,1-1.442.919,5.03,5.03,0,0,1-1.847.322,5.458,5.458,0,0,1-2.378-.49,4.97,4.97,0,0,1-1.7-1.314,5.611,5.611,0,0,1-1.014-1.9,7.786,7.786,0,0,1,0-4.549,5.692,5.692,0,0,1,1.014-1.91,4.913,4.913,0,0,1,1.7-1.323,5.427,5.427,0,0,1,2.378-.49,5.36,5.36,0,0,1,1.6.241,4.667,4.667,0,0,1,1.419.717,4.178,4.178,0,0,1,1.064,1.17,3.9,3.9,0,0,1,.54,1.595h-1.1A3.72,3.72,0,0,0,459.709,724.706Z" transform="translate(-257.52 -695.292)" fill="#fff"></path> <path id="Path_5744" data-name="Path 5744" d="M468.7,732.287a3.15,3.15,0,0,0,.492,1.055,2.776,2.776,0,0,0,.855.774,2.389,2.389,0,0,0,1.242.308,2.466,2.466,0,0,0,1.741-.581,3.069,3.069,0,0,0,.871-1.55h1.017a4.065,4.065,0,0,1-1.186,2.194,3.534,3.534,0,0,1-2.443.773,3.852,3.852,0,0,1-1.7-.346,3.092,3.092,0,0,1-1.169-.951,4.154,4.154,0,0,1-.671-1.4,6.43,6.43,0,0,1-.216-1.685,6.1,6.1,0,0,1,.216-1.613,4.358,4.358,0,0,1,.671-1.41,3.379,3.379,0,0,1,1.169-1,3.6,3.6,0,0,1,1.7-.378,3.286,3.286,0,0,1,2.861,1.458,4.348,4.348,0,0,1,.637,1.5,6.492,6.492,0,0,1,.162,1.719h-6.4A4.539,4.539,0,0,0,468.7,732.287Zm5.033-3.1a3.052,3.052,0,0,0-.524-.942,2.587,2.587,0,0,0-.823-.661,2.351,2.351,0,0,0-1.1-.25,2.392,2.392,0,0,0-1.114.25,2.578,2.578,0,0,0-.821.661,3.222,3.222,0,0,0-.54.951,4.585,4.585,0,0,0-.268,1.1h5.385A3.62,3.62,0,0,0,473.732,729.183Z" transform="translate(-261.737 -696.405)" fill="#fff"></path> <path id="Path_5745" data-name="Path 5745" d="M481.463,726.715v1.435h.033a2.438,2.438,0,0,1,1.033-1.218,3.032,3.032,0,0,1,1.628-.459,4.076,4.076,0,0,1,1.458.225,2.322,2.322,0,0,1,.945.636,2.39,2.39,0,0,1,.5,1.008,5.652,5.652,0,0,1,.145,1.338v5.354h-1.015v-5.193a4.917,4.917,0,0,0-.1-.992,2.127,2.127,0,0,0-.34-.8,1.633,1.633,0,0,0-.653-.531,2.383,2.383,0,0,0-1.024-.193,2.607,2.607,0,0,0-1.089.216,2.373,2.373,0,0,0-.808.6,2.747,2.747,0,0,0-.515.9,3.68,3.68,0,0,0-.2,1.136v4.855h-1.015v-8.322Z" transform="translate(-265.076 -696.405)" fill="#fff"></path> <path id="Path_5746" data-name="Path 5746" d="M496.246,725.928v.855h-1.694V732.4a1.805,1.805,0,0,0,.137.781c.09.189.32.294.684.314a8.228,8.228,0,0,0,.873-.047v.855c-.151,0-.3,0-.452.016s-.3.016-.452.016a2.012,2.012,0,0,1-1.419-.4,1.99,1.99,0,0,1-.387-1.458v-5.694h-1.451v-.855h1.451v-2.5h1.017v2.5Z" transform="translate(-268.084 -695.617)" fill="#fff"></path> <path id="Path_5747" data-name="Path 5747" d="M501.365,732.287a3.15,3.15,0,0,0,.492,1.055,2.775,2.775,0,0,0,.855.774,2.389,2.389,0,0,0,1.242.308,2.466,2.466,0,0,0,1.741-.581,3.069,3.069,0,0,0,.871-1.55h1.017a4.065,4.065,0,0,1-1.186,2.194,3.534,3.534,0,0,1-2.443.773,3.85,3.85,0,0,1-1.7-.346,3.1,3.1,0,0,1-1.17-.951,4.167,4.167,0,0,1-.67-1.4,6.43,6.43,0,0,1-.216-1.685,6.1,6.1,0,0,1,.216-1.613,4.372,4.372,0,0,1,.67-1.41,3.388,3.388,0,0,1,1.17-1,3.593,3.593,0,0,1,1.7-.378,3.286,3.286,0,0,1,2.861,1.458,4.348,4.348,0,0,1,.637,1.5,6.46,6.46,0,0,1,.162,1.719h-6.4A4.541,4.541,0,0,0,501.365,732.287Zm5.032-3.1a3.066,3.066,0,0,0-.524-.942,2.6,2.6,0,0,0-.823-.661,2.351,2.351,0,0,0-1.1-.25,2.392,2.392,0,0,0-1.114.25,2.578,2.578,0,0,0-.821.661,3.223,3.223,0,0,0-.541.951,4.621,4.621,0,0,0-.268,1.1H506.6A3.619,3.619,0,0,0,506.4,729.183Z" transform="translate(-270.181 -696.405)" fill="#fff"></path> <path id="Path_5748" data-name="Path 5748" d="M514.07,726.758v1.952h.031a3.211,3.211,0,0,1,1.2-1.565,3.156,3.156,0,0,1,1.944-.5v1.017a3.058,3.058,0,0,0-1.258.184,2.861,2.861,0,0,0-.977.621,2.813,2.813,0,0,0-.637.96,3.2,3.2,0,0,0-.225,1.217v4.434h-1.017v-8.322Z" transform="translate(-273.526 -696.448)" fill="#fff"></path></g> <path id="TUIC_logo_white" d="M119.153,683.192a2.973,2.973,0,0,1,.558,2.271c.007,3.653.009,7.3.024,10.957.007,1.528.248,3.067,2.208,2.96,1.851-.1,2.08-1.563,2.073-3.129-.033-7.662-.025-15.325-.016-22.987a4.04,4.04,0,0,1,.426-2.589,1.965,1.965,0,0,1,2.346-.812c1.367.469,1.47,1.634,1.47,2.84q.008,11.093.023,22.188,0,7.083-.01,14.167c0,1.478-.076,3.06-2.09,3.062-1.951,0-2.167-1.474-2.157-3.011.006-1.068.054-2.144-.04-3.2a2.1,2.1,0,1,0-4.2.1c-.045,3.3-.034,6.593-.049,9.888,0,.891.015,1.784-.039,2.672a2.084,2.084,0,1,1-4.168-.009c-.07-2.582-.03-5.167-.031-7.751q-.007-12.694-.01-25.388c0-1.2.054-2.373,1.484-2.8A2.06,2.06,0,0,1,119.153,683.192Zm20.561,12.264a2.361,2.361,0,0,1,1.321,2.422c0,3.654.015,7.308-.019,10.961-.015,1.608.03,3.319,2.127,3.29,2.028-.027,2.167-1.725,2.161-3.33q-.03-7.618-.036-15.236c-.005-2.852.013-5.7-.013-8.554-.012-1.408-.542-2.536-2.149-2.466-1.536.066-2.1,1.12-2.067,2.574.021.891,0,1.782-.01,2.673-.009,1.495-.082,3.04-2.094,3.055-1.953.015-2.2-1.444-2.2-2.981,0-2.494.039-4.989,0-7.482a1.964,1.964,0,0,0-1.978-2.1,1.843,1.843,0,0,0-2.152,1.879q-.093,8.682,0,17.366a1.858,1.858,0,0,0,1.927,1.852,1.946,1.946,0,0,0,2.038-1.4c.294-.73.221-1.614.912-2.18A2.02,2.02,0,0,1,139.713,695.456Zm-3.439,30.809q0-9.6-.008-19.208c0-1.527-.177-3.033-2.121-3.043-1.962-.009-2.114,1.5-2.113,3.031.005,6.314-.014,12.63,0,18.945a5.045,5.045,0,0,0,.251,2.089c.744,1.556,1.931,1.628,2.788,1.03A3.076,3.076,0,0,0,136.274,726.264Zm-19.375-73.4a2.539,2.539,0,0,0-1.418,2.638q.019,10.018,0,20.035c0,1.4.434,2.526,2.044,2.567,1.8.046,2.2-1.216,2.2-2.69q0-10.019-.019-20.038a2.584,2.584,0,0,0-.644-1.971A1.769,1.769,0,0,0,116.9,652.861Zm-9.2,21.155a2.539,2.539,0,0,0-1.418,2.639q.019,10.017,0,20.035c0,1.4.434,2.525,2.044,2.567,1.8.046,2.2-1.216,2.2-2.691q0-10.018-.019-20.037a2.584,2.584,0,0,0-.644-1.971A1.769,1.769,0,0,0,107.7,674.016Zm33.173,2.045a2.216,2.216,0,1,0,2.216-2.216A2.216,2.216,0,0,0,140.87,676.062ZM106.184,704.9a2.216,2.216,0,1,0,2.216-2.216A2.216,2.216,0,0,0,106.184,704.9Z" transform="translate(-106.184 -652.69)" fill="white" class="logoIcon"></path></svg>