<svg id="Icon_share_link" xmlns="http://www.w3.org/2000/svg" viewBox="0 0 32 32">
  <circle id="Ellipse_343" data-name="Ellipse 343" cx="16" cy="16" r="16"/>
  <g id="Group_6362" data-name="Group 6362" transform="translate(7.735 7.727)">
    <path id="Path_5665" data-name="Path 5665" d="M404.035-629.984l1.584-1.675c.054.121.1.222.144.32a2.163,2.163,0,0,0,3.44.66c1.1-1.061,2.183-2.149,3.251-3.248a2.168,2.168,0,0,0-.025-2.966,2.177,2.177,0,0,0-2.96-.2,13.9,13.9,0,0,0-1.054,1.037.408.408,0,0,1-.5.134,5.016,5.016,0,0,0-2.472-.224,2.186,2.186,0,0,1,.168-.226c.715-.718,1.416-1.449,2.151-2.145a4.222,4.222,0,0,1,4.459-1.02,4.139,4.139,0,0,1,2.936,3.457A4.16,4.16,0,0,1,414-632.355c-1.077,1.107-2.165,2.206-3.278,3.276A4.339,4.339,0,0,1,404.035-629.984Z" transform="translate(-398.694 639.78)" fill="#fff"/>
    <path id="Path_5666" data-name="Path 5666" d="M345.255-571.765c-.847.864-1.625,1.761-2.51,2.537a4.137,4.137,0,0,1-4.368.781,4.145,4.145,0,0,1-2.8-3.4,4.147,4.147,0,0,1,1.13-3.7c1.082-1.122,2.179-2.23,3.306-3.306a4.375,4.375,0,0,1,6.536.631c.189.262.191.421-.057.645-.46.414-.886.866-1.362,1.338-.072-.163-.115-.266-.163-.366a2.143,2.143,0,0,0-3.352-.717c-1.172,1.083-2.3,2.222-3.39,3.385a2.141,2.141,0,0,0,.115,2.933,2.187,2.187,0,0,0,2.967.125c.371-.324.7-.7,1.063-1.03a.483.483,0,0,1,.352-.116c.42.067.832.2,1.253.248A12.254,12.254,0,0,0,345.255-571.765Z" transform="translate(-335.512 584.691)" fill="#fff"/>
  </g>
</svg>
