<svg xmlns="http://www.w3.org/2000/svg" width="24" height="24" viewBox="0 0 24 24">
  <g id="Icon_Play" transform="translate(3761 21383)">
    <rect id="Rectangle_3454" data-name="Rectangle 3454" width="24" height="24" transform="translate(-3761 -21383)" fill="none"/>
    <g id="Polygon_1" data-name="Polygon 1" transform="translate(-3739 -21380) rotate(90)" fill="none">
      <path d="M8.106,1.789a1,1,0,0,1,1.789,0l7.382,14.764A1,1,0,0,1,16.382,18H1.618a1,1,0,0,1-.894-1.447Z" stroke="none"/>
      <path d="M 9.000002861022949 3.354086875915527 L 2.427041053771973 16.50000190734863 L 15.5729513168335 16.50000190734863 L 9.000002861022949 3.354086875915527 M 9.000000953674316 1.236064910888672 C 9.355083465576172 1.236064910888672 9.710165977478027 1.420326232910156 9.894431114196777 1.788852691650391 L 17.27639007568359 16.55278205871582 C 17.60884094238281 17.21768188476562 17.12535095214844 18.00000190734863 16.38196182250977 18.00000190734863 L 1.618030548095703 18.00000190734863 C 0.8746509552001953 18.00000190734863 0.3911609649658203 17.21768188476562 0.7236003875732422 16.55278205871582 L 8.105570793151855 1.788852691650391 C 8.289835929870605 1.420326232910156 8.644918441772461 1.236064910888672 9.000000953674316 1.236064910888672 Z" stroke="none" fill="#fff"/>
    </g>
  </g>
</svg>
